<mxfile host="app.diagrams.net" modified="2021-12-08T20:49:00.559Z" agent="5.0 (Windows NT 10.0; Win64; x64) AppleWebKit/537.36 (KHTML, like Gecko) Chrome/96.0.4664.93 Safari/537.36" etag="6e_z0Ay0pIqRWpPvpxal" version="15.9.4" type="github">
  <diagram id="C5RBs43oDa-KdzZeNtuy" name="Page-1">
    <mxGraphModel dx="1038" dy="579" grid="1" gridSize="10" guides="1" tooltips="1" connect="1" arrows="1" fold="1" page="1" pageScale="1" pageWidth="827" pageHeight="1169" math="0" shadow="0">
      <root>
        <mxCell id="WIyWlLk6GJQsqaUBKTNV-0" />
        <mxCell id="WIyWlLk6GJQsqaUBKTNV-1" parent="WIyWlLk6GJQsqaUBKTNV-0" />
        <mxCell id="DKY_xFxhD3xNnnRmzsKU-0" value="Supply:&lt;br&gt;&lt;br&gt;Supply_ID&lt;br&gt;&lt;br&gt;Supply_Price&lt;br&gt;&lt;br&gt;Quantity&amp;nbsp;&lt;br&gt;&lt;br&gt;Exp.Date" style="rounded=0;whiteSpace=wrap;html=1;" vertex="1" parent="WIyWlLk6GJQsqaUBKTNV-1">
          <mxGeometry x="10" y="5" width="120" height="140" as="geometry" />
        </mxCell>
        <mxCell id="DKY_xFxhD3xNnnRmzsKU-1" value="Worker:&lt;br&gt;&lt;br&gt;Worker_ID&lt;br&gt;&lt;br&gt;Name&lt;br&gt;&lt;br&gt;Lastname&lt;br&gt;&lt;br&gt;Start_Date&lt;br&gt;&lt;br&gt;Salary&amp;nbsp;" style="rounded=0;whiteSpace=wrap;html=1;" vertex="1" parent="WIyWlLk6GJQsqaUBKTNV-1">
          <mxGeometry x="160" y="5" width="120" height="170" as="geometry" />
        </mxCell>
        <mxCell id="DKY_xFxhD3xNnnRmzsKU-2" value="Position:&lt;br&gt;&lt;br&gt;Id&lt;br&gt;&lt;br&gt;Supply_ID" style="rounded=0;whiteSpace=wrap;html=1;" vertex="1" parent="WIyWlLk6GJQsqaUBKTNV-1">
          <mxGeometry x="300" y="5" width="120" height="170" as="geometry" />
        </mxCell>
        <mxCell id="DKY_xFxhD3xNnnRmzsKU-3" value="Order:&lt;br&gt;&lt;br&gt;Id&lt;br&gt;&lt;br&gt;Client ID&lt;br&gt;&lt;br&gt;Supply Id" style="rounded=0;whiteSpace=wrap;html=1;" vertex="1" parent="WIyWlLk6GJQsqaUBKTNV-1">
          <mxGeometry x="440" y="15" width="120" height="130" as="geometry" />
        </mxCell>
        <mxCell id="DKY_xFxhD3xNnnRmzsKU-6" value="Picking:&lt;br&gt;Picking_Id&lt;br&gt;Order_Id&lt;br&gt;Worker_Id" style="rounded=0;whiteSpace=wrap;html=1;" vertex="1" parent="WIyWlLk6GJQsqaUBKTNV-1">
          <mxGeometry x="580" y="15" width="120" height="150" as="geometry" />
        </mxCell>
        <mxCell id="DKY_xFxhD3xNnnRmzsKU-7" value="Client:&lt;br&gt;&lt;br&gt;Name&lt;br&gt;&lt;br&gt;Phone number&lt;br&gt;&lt;br&gt;email" style="whiteSpace=wrap;html=1;" vertex="1" parent="WIyWlLk6GJQsqaUBKTNV-1">
          <mxGeometry x="10" y="150" width="120" height="130" as="geometry" />
        </mxCell>
        <mxCell id="DKY_xFxhD3xNnnRmzsKU-8" value="To Warehouse:&lt;br&gt;&lt;br&gt;Id&lt;br&gt;&lt;br&gt;Supply_ID&lt;br&gt;&lt;br&gt;Quantity&amp;nbsp;&lt;br&gt;&lt;br&gt;" style="whiteSpace=wrap;html=1;" vertex="1" parent="WIyWlLk6GJQsqaUBKTNV-1">
          <mxGeometry x="140" y="180" width="120" height="150" as="geometry" />
        </mxCell>
      </root>
    </mxGraphModel>
  </diagram>
</mxfile>
